# xmcd
#
# Track frame offsets: 
#        150
#        16797
#        34301
#        48976
#        66846
#        86767
#        104314
#        119120
#        135172
#        152217
#        169854
#        184429
#        201131
#        220069
#        235052
#        255040
#        271691
#        291370
#        309698
#        326197
#        341742
#
# Disc length: 4769 seconds
#
# Revision: 0
# Processed by: cddbd v1.5.2PL0 Copyright (c) Steve Scherf et al.
# Submitted via: ExactAudioCopy v0.99pb5
#
DISCID=35129f15
DTITLE=Екатерина Голицына - На гитарной струне
DYEAR=2008
DGENRE=Chanson
TTITLE0=Апельсинчики
TTITLE1=Музыкант из перехода
TTITLE2=Все дела
TTITLE3=Любовь заочная
TTITLE4=Романс дворовой
TTITLE5=Кольца дыма
TTITLE6=Догонялки
TTITLE7=Товарищ майор
TTITLE8=Запретная любовь
TTITLE9=Лучшая подруга
TTITLE10=Светофор
TTITLE11=Кидайте денежки
TTITLE12=Невозвращенка
TTITLE13=Вороны
TTITLE14=С днём рождения, бродяга!
TTITLE15=Богу-богово
TTITLE16=Встреча
TTITLE17=А на воле
TTITLE18=Кепарик
TTITLE19=Песенка про дядю
TTITLE20=Хорошенькое дело
EXTD=
EXTT0=
EXTT1=
EXTT2=
EXTT3=
EXTT4=
EXTT5=
EXTT6=
EXTT7=
EXTT8=
EXTT9=
EXTT10=
EXTT11=
EXTT12=
EXTT13=
EXTT14=
EXTT15=
EXTT16=
EXTT17=
EXTT18=
EXTT19=
EXTT20=
PLAYORDER=
